PathFileType	4	(X/Y/Z)	s03c0301.trc
DataRate	CameraRate	NumFrames	NumMarkers	Units	OrigDataRate	OrigDataStartFrame	OrigNumFrames
200	200	4	52	mm	200	500	2000
Frame#	Time	racr			lacr			c7			jug			rlel			rdr			llel			ldr			s2			lic			ric			lasi			rasi			rpsi			lpsi			rgt			lgt			rth1			rth2			rth3			rth4			rlfc			rmfc			rsh1			rsh2			rsh3			rsh4			rlmal			rmmal			rcal			rtoe			rmt5			rmt1			lth1			lth2			lth4			lth3			llfc			lmfc			lsh1			lsh2			lsh3			lsh4			llmal			lmmal			lcal			ltoe			lmt1			lmt5			SBIKE			LBIKE			RBIKE			
		X1	Y1	Z1	X2	Y2	Z2	X3	Y3	Z3	X4	Y4	Z4	X5	Y5	Z5	X6	Y6	Z6	X7	Y7	Z7	X8	Y8	Z8	X9	Y9	Z9	X10	Y10	Z10	X11	Y11	Z11	X12	Y12	Z12	X13	Y13	Z13	X14	Y14	Z14	X15	Y15	Z15	X16	Y16	Z16	X17	Y17	Z17	X18	Y18	Z18	X19	Y19	Z19	X20	Y20	Z20	X21	Y21	Z21	X22	Y22	Z22	X23	Y23	Z23	X24	Y24	Z24	X25	Y25	Z25	X26	Y26	Z26	X27	Y27	Z27	X28	Y28	Z28	X29	Y29	Z29	X30	Y30	Z30	X31	Y31	Z31	X32	Y32	Z32	X33	Y33	Z33	X34	Y34	Z34	X35	Y35	Z35	X36	Y36	Z36	X37	Y37	Z37	X38	Y38	Z38	X39	Y39	Z39	X40	Y40	Z40	X41	Y41	Z41	X42	Y42	Z42	X43	Y43	Z43	X44	Y44	Z44	X45	Y45	Z45	X46	Y46	Z46	X47	Y47	Z47	X48	Y48	Z48	X49	Y49	Z49	X50	Y50	Z50	X51	Y51	Z51	X52	Y52	Z52	
500	2.5000	689.647168	1506.511509	-56.438358	677.477946	1498.707921	-390.108201	607.854743	1593.158400	-221.239609	654.636954	1427.111853	-219.849584	621.263353	1218.042031	10.636269	766.419848	967.221457	-50.146335	677.969953	1217.432261	-468.089232	772.351394	928.795933	-427.036623	127.158079	1248.403759	-224.703465	295.043449	1298.378303	-408.231371	300.117256	1259.564634	-40.175648	317.459870	1220.961367	-374.887397	330.978925	1189.184948	-98.019727	156.307628	1293.544714	-175.529151	157.455728	1301.507660	-258.855283	239.955605	1149.947145	-41.465993	247.191367	1189.586993	-438.672146	296.851067	1001.014228	-27.683358	355.188456	934.395485	-27.903717	375.939438	851.805324	-40.404457	387.874142	951.364921	-32.431599	419.176603	732.531606	-70.971773	429.764526	718.694274	-183.455351	364.120788	573.829328	-41.276109	357.548492	485.350121	-55.132876	307.711760	412.599092	-55.540694	385.267464	478.297615	-81.616553	250.204211	294.126190	-72.930772	273.183006	301.254645	-157.453763	179.692283	262.049653	-104.270718	482.805594	185.637689	-116.871186	365.515585	200.950388	-41.376817	389.126793	211.000164	-156.617313	342.451438	1081.644840	-475.442074	415.200493	1037.325784	-489.932892	441.664421	1058.866655	-478.230440	456.044648	959.808514	-507.153931	533.614343	854.987464	-514.041604	580.715315	840.854331	-354.977572	387.192864	758.093568	-513.509231	335.047158	698.132924	-481.537155	250.683622	669.820025	-462.700458	356.688476	675.094665	-459.367563	144.588210	609.138004	-426.711994	188.204162	603.300981	-341.733344	76.440514	630.754743	-371.290236	258.524309	379.362607	-353.353281	196.944127	454.082651	-316.439272	166.525057	455.415544	-431.107833	-213.439930	945.285293	-231.782366	-9.095616	80.948072	-433.419411	-9.096541	80.624574	-32.979642	
501	2.5050	691.334249	1506.332665	-57.385827	677.981371	1499.036342	-390.903176	608.895210	1593.213707	-221.783618	655.666453	1427.029893	-220.641990	622.860369	1218.031243	10.437780	766.880827	966.800804	-50.522970	678.269787	1217.605154	-468.869545	772.413717	928.839030	-427.123990	128.170493	1248.396048	-223.776179	295.335255	1298.866265	-407.712086	301.800153	1259.381565	-40.058704	318.119102	1221.680411	-374.576207	332.563256	1189.352222	-98.063001	157.487105	1293.451011	-174.544891	158.295266	1301.642820	-257.937590	241.124610	1149.058941	-41.292283	247.716755	1190.596202	-438.344456	296.438425	1000.286893	-27.808851	354.088243	932.889615	-28.177714	373.914041	850.142496	-40.787577	386.977709	949.499266	-32.759486	415.857208	730.503159	-71.557702	424.866465	716.209363	-184.600072	360.962583	571.818408	-41.628189	354.559623	483.129579	-55.364354	304.810452	410.338402	-55.646000	382.276098	476.203674	-81.862137	247.468861	292.017751	-72.607386	271.534089	299.413883	-156.868924	176.921336	260.373367	-103.908075	479.504647	181.799907	-117.065346	362.411569	197.923913	-41.402933	386.141707	207.954642	-156.389486	343.581173	1083.021712	-474.811289	416.396674	1039.480821	-490.541248	442.755012	1061.199278	-478.826088	457.759996	962.159384	-507.934453	535.837318	857.809925	-515.002154	583.366456	843.646366	-355.332697	389.247874	761.266613	-513.884703	337.133717	701.292440	-481.885866	252.828737	673.127018	-462.734420	358.869050	678.101512	-459.847218	146.932439	612.172243	-426.615998	190.750614	606.374165	-341.628826	78.619733	633.308882	-371.177905	253.835802	378.245924	-344.636140	200.161756	457.408652	-316.618134	169.920596	458.673815	-431.135902	-213.459449	945.244424	-231.763158	-9.093601	80.941973	-433.422867	-9.092572	80.612914	-32.992870	
502	2.5100	693.065141	1506.087817	-58.328552	678.588629	1499.438933	-391.752585	609.987669	1593.358600	-222.329302	656.779641	1427.049383	-221.368991	624.552107	1218.060296	10.069027	767.363419	966.281123	-51.007585	678.523222	1217.717633	-469.552100	772.471617	928.830426	-427.147859	129.052227	1248.588540	-222.735603	295.547358	1299.500744	-407.236609	303.600000	1259.277874	-39.969455	318.647490	1222.449265	-374.168130	334.191910	1190.022016	-97.983556	158.637712	1293.413862	-173.571910	158.862927	1301.999720	-257.444853	242.187940	1148.459516	-41.187972	248.241621	1191.666439	-437.953436	295.967956	999.590736	-27.887668	352.933499	931.399008	-28.827966	371.694587	848.555722	-41.153899	386.013826	947.715662	-33.421460	412.328682	728.552833	-72.192140	421.202685	714.148560	-184.930370	357.933607	569.748758	-42.142430	351.349419	481.249504	-55.585966	301.831256	408.209500	-55.673546	379.069756	474.272765	-82.062746	244.670485	289.979974	-72.330177	269.185773	297.399088	-156.523330	174.166451	258.728384	-103.434336	476.162537	178.058349	-117.311388	359.258707	194.944903	-41.381660	382.824580	204.901201	-156.426205	344.469389	1084.716663	-475.083323	417.562230	1041.628476	-491.060879	443.613261	1063.677517	-479.824580	459.340832	964.606507	-508.610649	538.130274	860.441886	-515.330478	585.734456	846.459636	-355.752665	391.256648	764.473805	-514.200343	339.239087	704.401543	-482.162162	254.967938	676.283439	-462.703901	361.008186	681.184406	-460.206891	149.261926	615.125797	-426.455435	193.176018	609.462370	-341.491328	80.698101	635.773067	-371.039924	263.344088	385.864243	-349.686793	203.438786	460.678533	-316.716445	172.949944	461.613771	-430.616816	-213.447178	945.252481	-231.771124	-9.099536	80.939644	-433.428063	-9.089489	80.610111	-32.970336	
503	2.5150	694.829317	1506.016343	-59.331038	679.243247	1499.716778	-392.312149	611.119147	1593.564077	-222.950446	657.891328	1427.119335	-222.137897	626.354977	1218.163817	9.572672	767.982390	965.430037	-51.482160	678.781471	1217.827580	-470.262646	772.528763	928.827079	-427.146550	130.034764	1248.907312	-221.719304	295.671069	1300.320880	-406.730639	305.512220	1259.296584	-39.949054	318.969872	1223.308003	-373.193411	335.757131	1190.601173	-97.992296	159.747844	1293.561773	-172.502692	159.663848	1302.451238	-256.228862	243.263325	1147.954357	-40.999744	248.754375	1192.905690	-437.537412	295.389258	998.985325	-27.984413	351.419256	930.387056	-28.730331	369.245819	847.150396	-41.529661	384.664153	946.232483	-33.392705	408.564788	726.766336	-72.793166	417.432189	712.169247	-185.339694	354.368828	567.975542	-42.434067	348.057767	479.362809	-55.755156	298.713743	406.286571	-55.727789	375.731505	472.436534	-82.305765	241.821854	287.982190	-72.187444	266.265071	295.274327	-156.371675	171.350999	257.370617	-103.002645	472.655025	174.260420	-117.479904	356.071746	192.051837	-41.315521	379.458636	201.845441	-156.480872	345.315322	1086.456336	-475.381533	418.622095	1043.887087	-491.565310	444.779092	1065.876594	-479.891318	460.843747	967.137652	-509.241748	540.227617	863.342236	-516.009246	587.830157	849.289938	-356.228348	393.177229	767.601459	-514.364841	341.243539	707.639168	-482.272339	257.001481	679.435464	-462.673571	363.016675	684.265179	-460.492478	151.492807	617.961421	-426.207963	195.568228	612.385121	-341.312156	82.844964	638.097800	-370.916268	267.569010	389.804529	-350.154690	206.795876	463.918374	-316.812218	176.781516	464.935579	-431.117847	-213.521881	945.254300	-231.933007	-9.104439	80.932026	-433.424532	-9.085090	80.606975	-32.972273	
